<svg version="1.1" viewBox="0.0 0.0 256.0 256.0" fill="none" stroke="none" stroke-linecap="square" stroke-miterlimit="10" xmlns:xlink="http://www.w3.org/1999/xlink" xmlns="http://www.w3.org/2000/svg"><clipPath id="p.0"><path d="m0 0l256.0 0l0 256.0l-256.0 0l0 -256.0z" clip-rule="nonzero"/></clipPath><g clip-path="url(#p.0)"><path fill="#000000" fill-opacity="0.0" d="m0 0l256.0 0l0 256.0l-256.0 0z" fill-rule="evenodd"/><path fill="#f3f4f5" d="m0.8085323 128.0l0 0c0 -70.692444 57.307552 -128.0 128.0 -128.0l0 0c33.94771 0 66.505005 13.485676 90.509674 37.490334c24.004654 24.004654 37.490326 56.56196 37.490326 90.50967l0 0c0 70.692444 -57.307556 128.0 -128.0 128.0l0 0c-70.692444 0 -128.0 -57.307556 -128.0 -128.0z" fill-rule="evenodd"/><path fill="#000000" fill-opacity="0.0" d="m106.27975 39.578293c-0.06320953 3.9676857 -0.25322723 15.618698 -0.3792572 23.806126c-0.12602234 8.1874275 -0.44010925 15.871143 -0.37689972 25.318455c0.06320953 9.447304 0.6301346 22.295769 0.7561569 31.365387c0.12602997 9.069618 -0.062812805 13.667839 0 23.052315c0.062820435 9.384491 0.37690735 24.058975 0.37690735 33.254623c0 9.195648 -0.3140869 13.794647 -0.37690735 21.91925c-0.062812805 8.124619 0 22.357025 0 26.828415" fill-rule="evenodd"/><path stroke="#242526" stroke-width="24.0" stroke-linejoin="round" stroke-linecap="butt" d="m106.27975 39.578293c-0.06320953 3.9676857 -0.25322723 15.618698 -0.3792572 23.806126c-0.12602234 8.1874275 -0.44010925 15.871143 -0.37689972 25.318455c0.06320953 9.447304 0.6301346 22.295769 0.7561569 31.365387c0.12602997 9.069618 -0.062812805 13.667839 0 23.052315c0.062820435 9.384491 0.37690735 24.058975 0.37690735 33.254623c0 9.195648 -0.3140869 13.794647 -0.37690735 21.91925c-0.062812805 8.124619 0 22.357025 0 26.828415" fill-rule="evenodd"/><path fill="#000000" fill-opacity="0.0" d="m189.79398 50.91443c-3.212326 0.12602997 -13.290543 -0.31486893 -19.27388 0.75616455c-5.9833374 1.0710297 -11.587799 2.8986168 -16.62613 5.6700325c-5.03833 2.771412 -9.635757 7.116787 -13.603836 10.958454c-3.9680786 3.8416595 -6.9295197 7.43087 -10.204651 12.091515c-3.2751236 4.660637 -5.982147 9.0071945 -9.446121 15.872322c-3.463974 6.8651276 -8.944382 20.468964 -11.337715 25.31845c-2.3933334 4.8494797 -2.51857 3.1487045 -3.0222855 3.77845" fill-rule="evenodd"/><path stroke="#242526" stroke-width="24.0" stroke-linejoin="round" stroke-linecap="butt" d="m189.79398 50.91443c-3.212326 0.12602997 -13.290543 -0.31486893 -19.27388 0.75616455c-5.9833374 1.0710297 -11.587799 2.8986168 -16.62613 5.6700325c-5.03833 2.771412 -9.635757 7.116787 -13.603836 10.958454c-3.9680786 3.8416595 -6.9295197 7.43087 -10.204651 12.091515c-3.2751236 4.660637 -5.982147 9.0071945 -9.446121 15.872322c-3.463974 6.8651276 -8.944382 20.468964 -11.337715 25.31845c-2.3933334 4.8494797 -2.51857 3.1487045 -3.0222855 3.77845" fill-rule="evenodd"/></g></svg>